<svg width="19" height="19" viewBox="0 0 19 19" xmlns="http://www.w3.org/2000/svg">
  <path d="M9.48218 0.617676C7.70215 0.617676 5.96209 1.14552 4.48205 2.13445C3.00201 3.12338 1.84845 4.52899 1.16727 6.17352C0.486077 7.81806 0.307847 9.62766 0.655114 11.3735C1.00238 13.1193 1.85955 14.723 3.11822 15.9816C4.37689 17.2403 5.98054 18.0975 7.72637 18.4447C9.4722 18.792 11.2818 18.6138 12.9263 17.9326C14.5709 17.2514 15.9765 16.0978 16.9654 14.6178C17.9543 13.1378 18.4822 11.3977 18.4822 9.61767C18.4793 7.23161 17.5302 4.94409 15.843 3.25689C14.1558 1.56969 11.8682 0.620551 9.48218 0.617676ZM16.6266 6.2128H13.3173C13.0087 4.47451 12.4677 3.02521 11.7659 2.0409C12.8211 2.36117 13.7981 2.89746 14.6349 3.61567C15.4717 4.33389 16.15 5.21834 16.6266 6.2128ZM17.3957 9.61767C17.3959 10.4033 17.2795 11.1847 17.0503 11.9361H13.4737C13.5635 11.1665 13.6092 10.3925 13.6106 9.61767C13.6121 8.84305 13.5693 8.06897 13.4824 7.29923H17.0503C17.2795 8.05069 17.3959 8.83202 17.3957 9.61767ZM9.48218 17.5312C8.43051 17.5312 7.29411 15.7929 6.75958 13.0225H12.2048C11.6703 15.7864 10.5338 17.5312 9.48218 17.5312ZM6.58793 11.9361C6.4025 10.396 6.4025 8.8393 6.58793 7.29923H12.3764C12.4729 8.06831 12.5223 8.84257 12.5242 9.61767C12.5252 10.3926 12.4787 11.1669 12.3851 11.9361H6.58793ZM1.56861 9.61767C1.56843 8.83202 1.68486 8.05069 1.9141 7.29923H5.49063C5.3197 8.84013 5.3197 10.3952 5.49063 11.9361H1.9141C1.68486 11.1847 1.56843 10.4033 1.56861 9.61767ZM9.48218 1.70411C10.5338 1.70411 11.6703 3.4424 12.2048 6.2128H6.75958C7.29411 3.44892 8.43051 1.70411 9.48218 1.70411ZM7.1985 2.0409C6.49667 3.02521 5.95562 4.47016 5.64708 6.2128H2.33781C2.81438 5.21834 3.49262 4.33389 4.32942 3.61567C5.16622 2.89746 6.14328 2.36117 7.1985 2.0409ZM2.33781 13.0225H5.64708C5.95562 14.7608 6.49667 16.2101 7.1985 17.1944C6.14328 16.8742 5.16622 16.3379 4.32942 15.6197C3.49262 14.9015 2.81438 14.017 2.33781 13.0225ZM11.7659 17.1944C12.4677 16.2101 13.0087 14.7652 13.3173 13.0225H16.6266C16.15 14.017 15.4717 14.9015 14.6349 15.6197C13.7981 16.3379 12.8211 16.8742 11.7659 17.1944Z" />
</svg>