<svg width="15" height="21" viewBox="0 0 15 21" xmlns="http://www.w3.org/2000/svg">
  <path fill-rule="evenodd" clip-rule="evenodd" d="M0.833606 7.20082C0.0764817 6.07982 0.576996 4.63872 2.00926 4.36871C2.59915 4.25784 3.20303 4.19231 3.80518 4.12696C4.02741 4.10284 4.24941 4.07875 4.47038 4.05241C4.54597 3.89408 4.62198 3.72605 4.70019 3.55316C5.26538 2.30377 5.94551 0.800293 7.41081 0.864669C8.90963 0.930519 9.59375 2.52719 10.1614 3.85204C10.208 3.96075 10.2538 4.06762 10.2992 4.17167C10.4167 4.18585 10.5377 4.19952 10.6611 4.21346C12.0384 4.36896 13.719 4.55872 14.2281 5.88414C14.7353 7.20482 13.4525 8.27851 12.4259 9.13778C12.2672 9.27062 12.1146 9.39833 11.9757 9.52103C12.0061 9.67712 12.0416 9.84317 12.0785 10.016C12.3571 11.3189 12.7183 13.0077 11.5794 13.7299C10.526 14.3978 9.19705 13.7175 8.06948 13.0507V20.152C8.06948 21.0506 6.75526 21.1246 6.75526 20.2159V13.0483C5.59401 13.6891 4.27961 14.3049 3.15082 13.5364C1.90183 12.6862 2.28289 11.053 2.60352 9.67888C2.64553 9.49883 2.6865 9.32323 2.72263 9.15442C2.47486 8.9053 2.22726 8.65601 1.97966 8.40673C1.65296 8.0778 1.32627 7.74888 0.999178 7.42036C0.923115 7.34386 0.868948 7.27041 0.833606 7.20082ZM2.17098 6.81276L3.41216 8.06138C3.47712 8.1268 3.55231 8.19507 3.63097 8.26649C3.94251 8.54936 4.30841 8.88159 4.30841 9.28108C4.30841 9.68087 4.19898 10.1182 4.09365 10.5392C4.04231 10.7445 3.99193 10.9458 3.95568 11.137C3.94571 11.1891 3.93155 11.2527 3.9157 11.3238C3.79642 11.8591 3.58135 12.8243 4.33566 12.5901C4.65562 12.4913 4.97991 12.3066 5.29493 12.1272C5.44875 12.0396 5.60036 11.9532 5.74818 11.8787C5.85149 11.8268 5.95672 11.7679 6.0637 11.7081C6.53607 11.4438 7.04241 11.1606 7.56793 11.3704C7.60125 11.3837 7.63447 11.3975 7.66758 11.4119C7.70462 11.4245 7.74038 11.4405 7.77428 11.46C8.05728 11.5922 8.33321 11.7573 8.60588 11.9205C8.77065 12.0191 8.93424 12.117 9.09749 12.2064C9.15418 12.2374 9.21607 12.2731 9.28164 12.3109C9.83919 12.6325 10.6629 13.1076 10.8178 12.1249C10.8813 11.7224 10.7772 11.2471 10.6802 10.8042C10.64 10.6209 10.6011 10.4433 10.5757 10.2786C10.5616 10.1855 10.5387 10.0792 10.5143 9.96586C10.4254 9.55351 10.3165 9.04775 10.5341 8.74556C10.6533 8.58024 10.9442 8.34459 11.2802 8.07235C12.0782 7.42588 13.1309 6.57309 12.745 5.96567C12.5696 5.68852 11.9686 5.64012 11.529 5.6047C11.3981 5.59416 11.2814 5.58476 11.1946 5.57083C11.0567 5.54851 10.9003 5.53289 10.7362 5.51649C10.2536 5.46826 9.70336 5.41328 9.35402 5.1616C9.02578 4.92544 8.83189 4.43666 8.66348 4.01213C8.60731 3.87055 8.55399 3.73612 8.49946 3.62058C8.46275 3.54261 8.41849 3.42217 8.36726 3.28273C8.21262 2.86187 7.99442 2.26799 7.72826 2.14671C7.24502 1.92811 6.81921 2.84749 6.40373 3.74457C6.07484 4.4547 5.75241 5.15086 5.41309 5.25751C4.99282 5.38926 4.50377 5.42471 4.03096 5.45898C3.80392 5.47544 3.58061 5.49163 3.37047 5.51807C3.29094 5.52839 3.20936 5.53613 3.12726 5.54392C2.96774 5.55905 2.80622 5.57436 2.65379 5.60919C2.12149 5.73228 1.75113 6.32535 2.16158 6.80172C2.16475 6.80541 2.16789 6.80909 2.17098 6.81276Z"/>
</svg>