<svg width="198" height="41" viewBox="0 0 198 41" xmlns="http://www.w3.org/2000/svg">
<path d="M13.0277 25.7866L9.56956 31.9999C5.57912 29.9849 2.38927 28.3547 0 27.1112C3.06509 24.2519 4.77022 22.2432 5.11541 21.0829C5.16947 20.8749 5.19859 20.6337 5.19859 20.3572C5.19859 19.045 4.62466 17.1257 3.47889 14.5992C2.33312 12.0727 1.56997 10.3364 1.18944 9.39023C0.8089 8.44408 0.619671 7.71628 0.619671 7.20474C0.619671 6.6932 0.702849 6.25236 0.869203 5.87806C1.25598 5.02133 2.16677 4.23947 3.60366 3.52622C5.04055 2.81505 7.22187 1.9209 10.1497 0.84375C10.5635 1.81069 10.8671 2.53641 11.0605 3.01884C9.20981 3.62603 8.19505 4.38503 8.01622 5.2979C7.97463 5.49129 7.95384 5.69923 7.95384 5.91965C7.95384 6.70775 8.21584 7.63934 8.74194 8.71649C13.6161 3.94211 16.2799 1.31786 16.7353 0.847909C17.9642 1.66305 19.0102 2.43868 19.8732 3.17895C20.7361 3.91715 21.7758 4.59089 22.9902 5.19809L27.1345 0.847909C28.7918 1.74622 30.4554 2.64038 32.1273 3.53038C33.797 4.42038 35.5375 5.18353 37.3466 5.81984C35.1237 7.3399 33.9488 9.91424 33.8262 13.5449L33.5974 21.2492V21.7046C33.5974 23.9421 34.3918 25.3021 35.9804 25.7845L32.6866 31.9978C30.6841 31.2659 29.2992 30.1305 28.534 28.5896C27.7667 27.0509 27.3841 24.9194 27.3841 22.1995V21.6194L27.4257 16.4C27.4257 15.144 27.6544 14.0461 28.1098 13.1062C28.5652 12.1663 29.1599 11.2222 29.8919 10.2677C27.1158 8.23822 25.0385 7.14028 23.6577 6.97392C23.1337 7.76203 22.8675 8.69361 22.8613 9.77076C22.8551 10.8479 22.8239 12.1039 22.7677 13.5408L22.539 21.2451V21.7005C22.539 24.2 23.194 25.6639 24.5061 26.0922L19.659 31.9958C18.9125 31.0558 18.0703 30.1659 17.1325 29.3237C16.1926 28.4815 15.3088 27.708 14.4812 27.003C14.895 26.5206 15.3026 25.7595 15.7039 24.724C16.1031 23.6884 16.3111 22.6529 16.3256 21.6173L17.0514 8.79551C15.8494 7.89719 14.9179 7.45011 14.2545 7.45011C14.0882 7.45011 13.9364 7.47715 13.7991 7.53329C13.1503 7.82233 11.832 8.92859 9.84196 10.8479L10.1102 11.3241C11.1458 13.258 11.6635 14.8591 11.6635 16.1297C11.6635 16.4749 11.622 16.7992 11.5388 17.1028C11.1666 18.4981 9.85444 20.6587 7.60241 23.5865C8.89998 24.5264 10.7091 25.2584 13.0297 25.7824L13.0277 25.7866Z"/>
<path d="M46.5336 31.9376L44.213 30.8812L39.2202 29.3487C40.0479 28.3131 40.4637 27.0634 40.4637 25.5995L40.6301 16.1963C40.6301 15.5059 40.1186 14.8426 39.0976 14.2083L42.225 10.272L47.197 13.5658C47.0452 14.1314 46.8351 14.5369 46.5648 14.7781C46.2966 15.0193 46.1323 15.4227 46.0782 15.9904L45.1466 25.7055C45.105 26.1339 45.3858 26.7972 45.9846 27.6935C46.5856 28.5918 47.3404 29.0597 48.2533 29.1012C49.6902 25.8012 50.4492 21.4988 50.5324 16.1963C50.5594 15.5475 50.0624 14.8842 49.0414 14.2083L52.1689 10.272L56.8497 13.5658C56.6979 14.1314 56.5399 14.5015 56.3735 14.6741C56.2071 14.8467 55.9514 15.7035 55.6062 17.2422C55.261 18.7831 54.5186 20.9062 53.3791 23.6115C52.2396 26.319 50.9898 28.8496 49.6299 31.2036C48.2699 33.5575 46.8809 35.6078 45.4669 37.3545C44.0508 39.1012 42.7844 40.2657 41.6657 40.8438L37.6482 37.5708C41.6802 36.0923 44.6413 34.2146 46.5336 31.9376Z"/>
<path d="M56.8289 28.1489L60.4325 24.3789C59.135 22.6384 58.2158 20.6712 57.6773 18.4753C59.3346 15.7409 61.7842 13.0064 65.0302 10.272C67.5837 10.9769 70.5115 11.6382 73.8116 12.2599L74.3086 12.1351L70.4138 16.1318L73.8116 24.645C71.2435 26.5643 68.8813 29.016 66.727 31.9979C64.0341 30.4092 60.734 29.1262 56.8268 28.1447L56.8289 28.1489ZM67.7854 26.7203C69.1807 26.7203 69.8773 26.2233 69.8773 25.2293C69.8773 24.3601 68.8833 22.5365 66.8954 19.7604L61.9235 24.8758C64.0632 26.1048 66.0179 26.7203 67.7854 26.7203ZM64.5124 20.1327L68.5298 15.9904C66.1281 15.3416 64.5186 15.0172 63.7035 15.0172C62.8883 15.0172 62.4371 15.0963 62.3477 15.2564C62.2583 15.4144 62.2125 15.5641 62.2125 15.7014C62.2125 16.4895 62.9798 17.9659 64.5124 20.1347V20.1327Z"/>
<path d="M85.9513 26.9468L81.3329 31.9999C80.3244 31.2263 79.3096 30.4507 78.2886 29.6688C77.2655 28.889 76.2591 28.1113 75.2651 27.3378C76.7706 26.0111 77.5359 24.6033 77.565 23.1124L77.6482 14.516H75.8453V12.8795C77.723 10.1866 80.0977 6.6994 82.9715 2.41992L84.0279 2.58628C83.7097 4.09179 83.4311 5.33113 83.1899 6.30431C82.9486 7.27748 82.7989 8.48979 82.7449 9.93916H86.3901V14.4141H82.6825L82.6409 23.2371C82.6409 24.2727 82.7345 24.8591 82.9195 24.9984C83.1067 25.1357 84.1173 25.7865 85.9534 26.9448L85.9513 26.9468Z"/>
<path d="M87.4839 14.2083L90.6114 10.2719L95.2506 12.447C95.0842 13.0126 94.9054 13.5658 94.712 14.1043C94.5186 14.6429 94.423 15.196 94.423 15.7616L94.1339 24.1709V24.358C94.1339 25.0068 94.3419 25.5454 94.7557 25.9737C95.1695 26.4021 95.6457 26.7265 96.1842 26.9469L92.042 31.9999L87.6502 28.4587C88.4508 27.5063 88.8522 26.5539 88.8522 25.5994L88.9977 16.1962C88.9977 15.5329 88.4945 14.8696 87.486 14.2083H87.4839ZM88.1056 10.0869L89.763 1.9043L95.9139 4.36843L88.1056 10.0848V10.0869Z"/>
<path d="M110.952 25.144L103.951 32.0415C99.5321 29.1136 97.3217 25.7033 97.3217 21.8086C97.3217 19.8892 97.9434 17.997 99.1848 16.1338C100.426 14.2706 102.429 12.2328 105.192 10.0244C106.38 10.798 107.602 11.5549 108.858 12.2931C110.114 13.0313 111.352 13.7674 112.566 14.4994L108.424 18.1446C107.596 17.6331 106.935 17.1964 106.446 16.8283C105.955 16.4623 105.438 16.1546 104.893 15.9071C104.348 15.6576 103.953 15.5349 103.712 15.5349C103.471 15.5349 103.211 15.6722 102.934 15.9487C102.077 16.8179 101.649 17.7994 101.649 18.889C101.649 20.8084 102.768 22.8587 105.005 25.04C105.571 25.564 106.116 25.8281 106.642 25.8281C107.567 25.8281 108.409 25.1939 109.168 23.9234C109.457 24.1313 109.75 24.3351 110.048 24.5347C110.345 24.7343 110.645 24.9381 110.948 25.1461L110.952 25.144Z"/>
<path d="M135.521 3.16234L135.629 3.10828L135.575 3.81528C135.502 4.3601 135.448 4.77806 135.411 5.0671L135.357 5.50171C135.211 6.62668 135.084 7.46261 134.976 8.00742C134.903 8.40668 134.793 8.9702 134.65 9.69592L134.377 10.7315C133.978 12.4387 133.67 13.6905 133.452 14.489C132.799 16.8492 132 19.1366 131.056 21.3512C130.112 23.5657 129.095 25.6348 128.006 27.5603C127.207 28.9764 126.498 30.0661 125.883 30.8271C125.737 30.9727 125.502 31.2077 125.176 31.5341C125.138 31.5716 125.068 31.6256 124.957 31.6984C124.885 31.7712 124.812 31.8253 124.739 31.8627L124.685 31.9168C124.577 31.9895 124.467 32.0436 124.358 32.081C123.995 32.1185 123.633 32.2266 123.269 32.4075C123.196 32.4449 123.069 32.4803 122.888 32.5156C122.815 32.5531 122.761 32.5884 122.724 32.6238H122.616C122.543 32.6612 122.47 32.6965 122.398 32.7319C122.325 32.7319 122.198 32.7693 122.017 32.84C121.58 32.9856 121.235 33.0771 120.981 33.1124C120.763 33.1852 120.582 33.2206 120.437 33.2206C119.856 33.2206 119.401 32.8587 119.075 32.1309C118.821 31.5861 118.675 30.8417 118.64 29.8976C118.603 29.5358 118.586 28.9723 118.586 28.2091C118.548 27.8473 118.532 27.6102 118.532 27.5021C118.424 27.7205 118.332 27.866 118.259 27.9388C118.041 28.2299 117.825 28.4295 117.607 28.5377C117.315 28.756 117.026 28.8475 116.735 28.8101H116.681C116.608 28.8475 116.317 28.9744 115.81 29.1906L115.483 29.2988L115.429 29.3528C115.357 29.3902 115.284 29.4069 115.211 29.4069C115.028 29.4443 114.739 29.5337 114.34 29.6793C114.121 29.7167 113.976 29.7521 113.903 29.7874C113.504 29.8955 113.196 29.8789 112.978 29.7334C112.724 29.5878 112.543 29.28 112.433 28.808C112.325 28.4088 112.269 27.918 112.269 27.3378C112.231 26.2482 112.341 25.0505 112.595 23.7446C112.63 23.4181 112.722 22.9274 112.867 22.2744C113.086 20.9311 113.248 19.9517 113.358 19.3341C113.539 18.5356 113.812 17.4106 114.175 15.9571C114.248 15.6306 114.313 15.3395 114.367 15.0858C114.421 14.8321 114.394 14.6679 114.286 14.5951L114.232 14.541L114.286 14.4869C114.793 13.2538 115.284 12.0374 115.756 10.8375V10.7835H115.81C115.845 10.7835 115.883 10.8022 115.918 10.8375H115.972L116.08 10.5651L116.134 10.6192V10.5111L116.188 10.457L116.353 10.5651C116.353 10.5298 116.388 10.457 116.461 10.3468L116.515 10.2387L116.679 10.4029V10.457L116.733 10.4029L116.787 10.2948L116.951 10.2407C117.097 10.2054 117.205 10.168 117.278 10.1326C117.351 10.0973 117.459 10.0598 117.604 10.0245L117.877 9.91634L117.931 10.0245L118.149 9.698L118.203 9.91634V9.86228C118.276 9.82693 118.349 9.7895 118.422 9.75415C118.457 9.7188 118.494 9.68137 118.53 9.64602C118.603 9.61067 118.729 9.5566 118.91 9.48174C118.983 9.48174 119.037 9.46303 119.075 9.42768H119.129L119.237 9.59195L119.671 9.31955L119.725 9.48382V9.75623C119.653 10.0099 119.58 10.2283 119.507 10.4092C119.253 11.2077 118.927 12.4616 118.528 14.1667L118.42 14.4932C118.093 15.9821 117.694 18.232 117.222 21.2451C117.149 21.7171 117.058 22.4262 116.949 23.3682C116.912 23.6219 116.895 23.7862 116.895 23.859C117.584 22.5156 118.22 21.1723 118.802 19.829C118.875 19.6481 119.002 19.3216 119.183 18.8496C119.364 18.4129 119.509 18.0864 119.619 17.8702C119.8 17.4356 120 16.7639 120.218 15.8552C120.364 15.2376 120.491 14.7656 120.599 14.4391C120.672 14.2936 120.753 14.0773 120.844 13.7862C120.934 13.4951 120.998 13.2954 121.035 13.1873C121.216 12.6799 121.327 12.316 121.362 12.0977L121.416 12.0436H121.47C121.505 12.0436 121.56 12.0623 121.634 12.0977L121.688 11.8253H121.797C121.832 11.8253 121.869 11.844 121.905 11.8793V11.8253L121.959 11.7712L122.067 11.8253C122.102 11.8253 122.14 11.8065 122.175 11.7712C122.175 11.6984 122.194 11.6444 122.229 11.6069L122.283 11.5529L122.447 11.661C122.52 11.5882 122.666 11.5154 122.882 11.4426C122.917 11.4073 122.955 11.3886 122.99 11.3886C123.063 11.3532 123.171 11.2992 123.317 11.2243L123.589 11.1162L123.697 11.2243C123.77 11.1515 123.843 11.1162 123.916 11.1162H123.97C124.042 11.0808 124.115 11.0434 124.188 11.008C124.296 10.8999 124.477 10.7897 124.733 10.6816L124.787 10.6275H124.951C125.097 10.7003 125.259 10.6649 125.442 10.5194L125.606 10.4113L125.552 10.6296V11.1203L125.334 11.8835C124.899 13.3724 124.571 14.4786 124.354 15.2064C124.209 15.6431 124.082 16.3148 123.974 17.2214C123.866 17.9845 123.701 19.147 123.483 20.7065C123.375 21.4697 123.3 21.9583 123.265 22.1767C123.046 23.6656 122.992 25.3166 123.1 27.132C123.1 27.4959 123.136 27.9845 123.209 28.6021C123.244 28.8558 123.263 29.0201 123.263 29.0929C123.371 28.9473 123.443 28.8392 123.481 28.7664C124.86 26.4063 126.022 24.1376 126.966 21.9583C127.91 19.7791 128.763 17.421 129.526 14.8779C129.852 13.7883 130.324 12.1372 130.942 9.92258C131.196 8.97852 131.379 8.32558 131.487 7.96168C131.632 7.38151 131.832 6.65371 132.086 5.78243C132.339 4.94858 132.466 4.47446 132.466 4.36633H132.52L132.739 4.2582L132.793 4.15007L133.283 3.93173V3.9858C133.319 3.95045 133.356 3.93173 133.391 3.93173C133.5 3.78617 133.683 3.69676 133.936 3.65933L134.044 3.60526H134.153L134.207 3.5512L134.261 3.65933C134.296 3.65933 134.315 3.64061 134.315 3.60526C134.423 3.53248 134.496 3.47842 134.533 3.44099H134.587C134.733 3.29543 134.86 3.22265 134.968 3.22265H135.022C135.13 3.18729 135.221 3.18729 135.294 3.22265C135.402 3.18729 135.475 3.16858 135.513 3.16858L135.521 3.16234Z"/>
<path d="M147.555 7.68297L147.663 7.62891V7.90131C147.663 8.04687 147.644 8.155 147.609 8.22778C147.426 9.64388 147.099 11.2783 146.629 13.129C146.265 14.3995 145.831 15.9425 145.321 17.7578C145.103 18.521 144.776 19.646 144.342 21.1348C144.051 22.1517 143.851 22.8774 143.743 23.3141L143.471 24.2935C143.036 25.8177 142.707 26.9614 142.491 27.7246C142.308 28.4149 142.019 29.5046 141.62 30.9913C141.512 31.428 141.437 31.7545 141.401 31.9708C141.364 32.0789 141.329 32.2245 141.293 32.4054C141.256 32.6237 141.221 32.7693 141.185 32.842C141.185 32.9148 141.148 32.9876 141.077 33.0604C141.04 33.0978 141.023 33.1332 141.023 33.1685L140.969 33.2226L140.697 33.0583L139.99 33.5491L139.825 33.4409C139.788 33.5137 139.68 33.6052 139.499 33.7133C139.353 33.8215 139.245 33.9317 139.172 34.0398L139.118 34.0939L138.954 33.8755L138.355 34.3122L138.301 34.2041L137.648 34.6387L137.54 34.5305C137.467 34.6033 137.403 34.6387 137.349 34.6387C137.295 34.6387 137.213 34.6012 137.103 34.5305H136.995L136.887 34.4765L136.941 33.9317C136.976 33.4243 137.014 33.0417 137.049 32.788C137.122 31.7711 137.122 30.8811 137.049 30.1201C137.049 29.9745 137.03 29.7936 136.995 29.5753C136.922 29.0304 136.868 28.6146 136.831 28.3234C136.577 27.0155 136.068 25.8718 135.307 24.8924C135.269 24.8924 135.253 24.8737 135.253 24.8383C133.982 26.872 133.001 28.6686 132.312 30.2303L132.258 30.2843H132.204C131.913 30.2116 131.624 30.3218 131.333 30.6108L131.279 30.6649L131.115 30.5567L130.407 31.1016L130.299 30.9934L129.973 31.1577C129.646 31.3407 129.374 31.4842 129.156 31.5944C128.975 31.6672 128.721 31.6859 128.393 31.6484C128.32 31.6484 128.284 31.6297 128.284 31.5944H128.176V31.2679L128.23 31.2138L128.284 31.1598C128.357 31.1598 128.393 31.1411 128.393 31.1057C128.465 30.9248 128.557 30.7439 128.665 30.5609C128.447 30.3426 128.411 30.0889 128.557 29.7978C128.991 29.1448 129.482 28.4087 130.027 27.5915C130.572 26.7743 131.125 25.93 131.688 25.0587C132.252 24.1874 132.732 23.443 133.132 22.8254C133.023 22.7173 132.822 22.5904 132.533 22.4449L132.479 22.3908C132.26 22.2827 131.969 22.1371 131.607 21.9541C131.426 21.8813 131.3 21.8273 131.227 21.7899L130.628 21.4634L130.682 21.2991L131.117 21.3532L130.898 21.1889L131.333 20.9706C131.695 20.7896 131.967 20.6628 132.15 20.59C132.258 20.5547 132.368 20.5172 132.477 20.4819C132.657 20.4465 132.795 20.3738 132.884 20.2635C132.974 20.1554 133.165 20.0639 133.456 19.9911C133.782 19.9184 134.144 19.8456 134.546 19.7728C134.764 19.7375 134.945 19.7541 135.09 19.8269H135.144C135.762 18.8475 136.143 18.2673 136.288 18.0843C136.687 17.4667 137.122 16.8865 137.596 16.3417L139.775 13.2912C139.921 13.0729 140.121 12.7921 140.374 12.447C140.628 12.1018 140.855 11.7753 141.054 11.4675C141.254 11.1598 141.443 10.877 141.626 10.6233C142.171 9.89757 142.662 9.46089 143.096 9.31533H143.204C143.312 9.27998 143.385 9.24255 143.423 9.2072C143.604 9.13442 143.768 9.11778 143.913 9.15313C143.986 9.15313 144.059 9.13442 144.132 9.09907C144.24 9.06372 144.313 9.02629 144.35 8.99094L145.003 8.66446C145.076 8.62911 145.13 8.60208 145.167 8.58337C145.203 8.56465 145.257 8.55633 145.332 8.55633H145.44C145.513 8.55633 145.548 8.54802 145.548 8.5293C145.548 8.51059 145.567 8.50227 145.602 8.50227C145.675 8.42949 145.766 8.41285 145.874 8.4482C145.947 8.41285 145.982 8.37542 145.982 8.34007C146.055 8.15916 146.255 8.0136 146.581 7.90339C146.654 7.86804 146.708 7.84933 146.746 7.84933C146.781 7.81398 146.818 7.81398 146.854 7.84933C146.962 7.92211 147.107 7.90339 147.288 7.79526C147.396 7.72248 147.488 7.68713 147.561 7.68713L147.555 7.68297ZM139.821 23.2579C140.401 21.297 141.11 18.7747 141.944 15.6888L137.75 21.0808C137.823 21.1182 137.896 21.1723 137.968 21.245C138.222 21.4634 138.422 21.6256 138.567 21.7358C138.786 21.9541 139.021 22.2265 139.276 22.553C139.349 22.6258 139.441 22.736 139.549 22.8795C139.657 23.0625 139.748 23.1893 139.821 23.26V23.2579Z"/>
<path d="M164.764 13.3994C164.872 13.7986 164.853 14.1979 164.71 14.5971C164.492 15.142 164.111 15.7221 163.566 16.3397C162.913 17.0654 161.913 17.9014 160.572 18.8454C159.156 19.7895 157.521 20.7523 155.671 21.7317C153.674 22.7485 152.204 23.4742 151.26 23.9109C152.277 24.4911 153.564 25.5183 155.126 26.9885C156.685 28.4586 157.829 29.4485 158.557 29.9558C158.702 30.064 158.775 30.1929 158.775 30.3364C159.029 30.5547 159.301 30.7918 159.592 31.0434C159.811 31.2264 159.865 31.4613 159.757 31.7504C159.829 31.7504 159.902 31.7878 159.975 31.8585C160.048 31.9313 160.102 31.9667 160.139 31.9667C160.43 32.2203 160.43 32.5302 160.139 32.892C160.175 32.892 160.193 32.9461 160.193 33.0563C160.339 33.3827 160.247 33.6281 159.921 33.7924C159.594 33.9567 159.322 33.9276 159.104 33.7113C159.066 33.7113 158.921 33.6032 158.667 33.3848C159.066 33.8569 159.447 34.2935 159.811 34.6928C159.773 34.6928 159.757 34.6741 159.757 34.6387C159.538 34.5659 159.339 34.6013 159.158 34.7469C159.012 34.6741 158.804 34.5285 158.532 34.3102C158.259 34.0918 158.087 33.9484 158.014 33.8735C157.397 33.2559 156.633 32.6217 155.727 31.9667C154.273 30.9498 153.275 30.2782 152.732 29.9517C152.514 29.7708 151.389 29.0991 149.355 27.9367C149.21 27.8286 148.975 27.683 148.646 27.5L147.829 29.2967C147.683 29.5878 147.465 29.6418 147.176 29.4609C147.031 29.8955 146.958 30.1326 146.958 30.1679C146.85 30.3863 146.648 30.5318 146.359 30.6025H146.305C146.267 30.7107 146.205 30.8022 146.114 30.8749C146.022 30.9477 145.914 31.0101 145.787 31.0663C145.66 31.1203 145.577 31.1661 145.542 31.2014H145.323C145.215 31.2014 145.14 31.2389 145.105 31.3096L144.941 31.4177C144.833 31.6007 144.65 31.7442 144.396 31.8523C144.323 31.7442 144.288 31.6714 144.288 31.6339C144.142 31.7795 144.015 31.9063 143.907 32.0145C143.943 31.2513 143.98 30.8521 144.015 30.8167C144.088 30.1991 144.342 29.3279 144.779 28.2029C145.14 27.186 145.467 26.3148 145.758 25.589C145.72 25.4435 145.666 25.2626 145.594 25.0442V24.9361C145.303 24.4994 145.14 24.2478 145.103 24.1729C144.957 24.0274 144.893 23.7737 144.912 23.4098C144.93 23.048 145.049 22.7922 145.265 22.6466C145.664 22.3202 145.899 22.1205 145.974 22.0478C146.373 21.7941 146.681 21.6131 146.9 21.5029H146.954V21.3387C147.062 20.9394 147.207 20.5402 147.388 20.1409V20.0868C147.569 19.4339 147.75 18.7622 147.933 18.0719V18.18C147.86 18.2174 147.787 18.1987 147.715 18.1259C147.968 17.5458 148.205 16.9282 148.424 16.2752C148.642 15.4414 148.858 14.6055 149.077 13.7695C148.823 13.7695 148.732 13.6427 148.804 13.389C148.95 12.7007 149.095 12.0997 149.239 11.5924C149.201 11.557 149.166 11.5196 149.131 11.4842C149.166 11.4489 149.239 11.3761 149.349 11.2659C149.241 11.2305 149.039 11.139 148.75 10.9935L148.858 10.7211C148.605 10.5027 148.478 10.3218 148.478 10.1763L148.37 10.0681L148.205 9.90386V9.1407C148.894 8.88701 149.258 8.76017 149.295 8.76017C150.457 8.39835 151.345 8.14258 151.963 7.99702C153.414 7.59776 154.469 7.32536 155.122 7.1798C155.448 7.14445 156.174 7.12573 157.301 7.12573C158.064 7.16316 158.79 7.27129 159.48 7.4522C160.133 7.67054 160.805 7.94295 161.495 8.26942C161.93 8.48776 162.42 9.06792 162.965 10.012C163.327 10.6296 163.654 11.1744 163.945 11.6464C164.236 12.081 164.508 12.6633 164.762 13.389L164.764 13.3994ZM161.171 12.5281C161.206 12.4928 161.443 12.2203 161.878 11.7109C161.587 11.53 161.006 11.3491 160.135 11.1661C159.264 10.9852 158.428 10.8937 157.629 10.8937C156.904 10.8583 155.542 11.0579 153.545 11.4925V11.5466C152.892 14.0877 152.148 16.6121 151.312 19.1157C153.708 17.7724 155.833 16.5206 157.683 15.3582C158.991 14.4869 160.152 13.5429 161.169 12.526L161.171 12.5281Z"/>
<path d="M178.214 15.7429C178.322 15.7429 178.359 15.8157 178.322 15.9613C178.322 16.0694 178.284 16.1255 178.214 16.1255C178.176 16.1255 178.114 16.1339 178.022 16.1526C177.931 16.1713 177.866 16.1796 177.831 16.1796C177.866 16.217 177.877 16.2711 177.858 16.3439C177.839 16.4167 177.812 16.452 177.777 16.452C177.197 16.5601 176.742 16.6516 176.415 16.7244L176.361 16.7785C176.288 16.8159 176.215 16.8429 176.143 16.8596C176.07 16.8783 176.016 16.8866 175.978 16.8866C176.014 16.8866 176.251 16.8513 176.687 16.7785C176.76 16.7785 176.814 16.8159 176.852 16.8866V16.8326C176.96 16.8326 177.016 16.87 177.016 16.9407C177.089 16.9781 177.124 17.0405 177.124 17.132C177.124 17.2235 177.087 17.2859 177.016 17.3233C176.943 17.3607 176.744 17.4148 176.417 17.4876L176.253 17.5416H176.307C176.38 17.5063 176.434 17.5416 176.471 17.6498L176.417 17.8681C176.38 17.8681 176.326 17.8868 176.253 17.9222C176.18 17.9596 176.107 17.995 176.035 18.0303C176.143 18.1384 176.124 18.2299 175.98 18.3027C175.943 18.3027 175.908 18.3214 175.872 18.3568C175.98 18.3214 176.053 18.3568 176.091 18.4649C176.091 18.573 176.053 18.6479 175.983 18.6832C175.945 18.7207 175.883 18.756 175.791 18.7914C175.7 18.8288 175.635 18.8642 175.6 18.8995C175.562 18.8995 175.527 18.9182 175.492 18.9536C175.02 19.1366 174.583 19.3175 174.184 19.4984V19.6627L172.714 19.9891C172.606 19.9891 172.387 20.0349 172.061 20.1243C171.734 20.2158 171.481 20.2782 171.298 20.3156C170.863 20.4612 170.445 20.588 170.046 20.6961C170.008 20.7336 169.973 20.7149 169.938 20.6421C169.829 20.6795 169.684 20.7336 169.503 20.8063C169.32 20.8791 169.177 20.9332 169.066 20.9706C168.848 21.0434 168.613 21.1162 168.359 21.189C168.106 21.2617 167.823 21.3428 167.515 21.4343C167.205 21.5258 166.962 21.6069 166.779 21.6797C166.706 21.6797 166.652 21.7338 166.615 21.844C166.507 22.027 166.197 22.7693 165.689 24.0773V24.1314C165.617 24.2769 165.562 24.4225 165.525 24.568C165.488 24.6408 165.488 24.7136 165.525 24.7864C165.488 24.7864 165.471 24.8051 165.471 24.8405C165.363 25.0234 165.288 25.1669 165.253 25.2771C165.215 25.3146 165.199 25.3686 165.199 25.4414C165.09 25.6597 165.016 25.8219 164.98 25.9322C164.943 26.0403 164.943 26.1318 164.98 26.2046V26.2586C164.943 26.4416 164.999 26.5685 165.145 26.6392C165.506 26.8222 165.962 26.7847 166.507 26.531C167.378 26.531 168.848 26.0943 170.917 25.2231C171.424 25.0047 171.878 24.8238 172.279 24.6783H172.387C172.932 24.4973 173.439 24.3331 173.911 24.1875C173.947 24.1875 173.984 24.1688 174.02 24.1334H174.128C174.6 23.9879 175.107 23.861 175.652 23.7529C175.797 23.7176 175.906 23.6801 175.978 23.6448C176.087 23.6094 176.178 23.5907 176.251 23.5907C176.577 23.4452 176.796 23.3557 176.904 23.3183C177.049 23.2455 177.195 23.2642 177.34 23.3724C177.559 23.2642 177.74 23.1915 177.885 23.154C177.993 23.0812 178.093 23.0916 178.185 23.1811C178.274 23.2726 178.311 23.3807 178.293 23.5075C178.274 23.6344 178.212 23.7342 178.101 23.807C178.137 23.99 178.083 24.0981 177.937 24.1334C177.754 24.2062 177.592 24.279 177.446 24.3518C177.409 24.3892 177.374 24.4246 177.338 24.4599C177.411 24.6055 177.392 24.751 177.284 24.8966C177.43 25.2231 177.374 25.4955 177.12 25.7138C177.12 25.8968 177.047 26.0236 176.902 26.0943C176.864 26.0943 176.837 26.1047 176.821 26.1214C176.804 26.138 176.794 26.1671 176.794 26.2025H176.739C176.556 26.3106 176.359 26.4208 176.141 26.529C176.141 26.6745 176.095 26.7826 176.003 26.8554C175.912 26.9282 175.831 27.001 175.758 27.0738C175.721 27.0738 175.704 27.0925 175.704 27.1278C175.666 27.3815 175.558 27.5624 175.377 27.6726C175.269 27.7101 175.051 27.8182 174.724 27.9991C174.687 28.0719 174.633 28.1447 174.56 28.2175C174.196 28.5439 173.797 28.6728 173.362 28.598C173.109 28.6708 172.872 28.7623 172.655 28.8704C172.655 28.9078 172.637 28.9432 172.601 28.9785C172.564 29.0513 172.51 29.1054 172.437 29.1428C172.292 29.1802 172.092 29.2509 171.838 29.3611H171.674C171.637 29.3611 171.547 29.3882 171.402 29.4422C171.256 29.4963 171.148 29.5421 171.075 29.5774H170.857C169.622 29.9767 168.37 30.3593 167.099 30.7211C166.881 30.7585 166.527 30.8563 166.037 31.0205C165.546 31.1848 165.157 31.3116 164.866 31.4011C164.575 31.4926 164.213 31.5737 163.776 31.6464C163.342 31.7192 162.94 31.7546 162.579 31.7546C162.034 31.7192 161.524 31.5279 161.054 31.1827C160.582 30.8375 160.329 30.3572 160.291 29.7396V29.4131H160.237V29.2489C160.274 29.1761 160.274 29.1033 160.237 29.0305C160.383 28.5585 160.509 28.1239 160.618 27.7225C160.653 27.6872 160.68 27.6414 160.699 27.5874C160.717 27.5333 160.726 27.4876 160.726 27.4522C160.834 27.053 160.961 26.6724 161.106 26.3085C161.395 25.1461 161.795 24.0586 162.304 23.0417C162.339 23.0064 162.366 22.9419 162.385 22.8504C162.404 22.761 162.431 22.7153 162.466 22.7153C161.849 22.8983 161.268 23.0792 160.724 23.2601C160.759 23.2247 160.85 23.0417 160.996 22.7153C161.142 22.3888 161.268 22.1538 161.377 22.0083C161.485 21.8627 161.63 21.7546 161.813 21.6818C161.921 21.609 161.994 21.5175 162.032 21.4094C162.067 21.374 162.086 21.2825 162.086 21.137C162.048 20.9914 162.086 20.902 162.194 20.8646C162.302 20.7918 162.466 20.6837 162.685 20.5381C162.903 20.3925 163.065 20.2844 163.175 20.2116C163.394 20.0661 163.612 19.7937 163.828 19.3944C163.828 19.3591 163.901 19.2676 164.047 19.122L164.101 19.0679C164.718 18.5606 165.479 18.1967 166.388 17.9783C166.86 17.8328 167.459 17.6331 168.185 17.3794C168.293 17.3441 168.43 17.29 168.592 17.2152C168.757 17.1424 168.892 17.0883 169 17.0509C170.416 16.5435 171.595 16.2524 172.539 16.1796C173.227 15.9987 173.918 15.9259 174.608 15.9613C174.643 15.9613 174.681 15.98 174.716 16.0153C174.897 15.98 175.061 15.9426 175.207 15.9072C175.86 15.7616 176.477 15.6348 177.058 15.5267C177.13 15.4913 177.184 15.5079 177.222 15.5807C177.257 15.7263 177.222 15.8178 177.114 15.8531C177.076 15.8906 177.041 15.9072 177.006 15.9072C177.405 15.8344 177.804 15.7804 178.203 15.7429H178.214ZM181.699 10.1888C181.772 10.2262 181.799 10.2886 181.78 10.3801C181.761 10.4716 181.716 10.5152 181.645 10.5152C181.645 10.5527 181.607 10.5693 181.537 10.5693H181.483C180.83 10.6421 180.175 10.7689 179.522 10.9498V11.0039C179.775 11.0039 180.428 10.9685 181.483 10.8958C181.555 10.8958 181.599 10.9498 181.62 11.06C181.639 11.1682 181.593 11.243 181.483 11.2784C181.445 11.2784 181.3 11.3158 181.048 11.3865C181.048 11.5321 180.994 11.6236 180.884 11.6589C180.557 11.6963 180.193 11.767 179.794 11.8773C179.794 11.95 179.775 11.9854 179.74 11.9854C179.522 12.1309 179.287 12.2578 179.033 12.3659C178.996 12.4034 178.96 12.42 178.925 12.42L178.817 12.4741C178.709 12.4741 178.634 12.4928 178.598 12.5281H178.544C177.128 12.7818 176.184 12.9461 175.712 13.0189C174.005 13.3453 172.063 13.9442 169.886 14.8155C169.632 14.9236 169.268 15.0609 168.796 15.2231C168.324 15.3873 167.998 15.5038 167.817 15.5766C167.164 15.7949 166.546 16.086 165.966 16.4479C165.748 16.5934 165.367 16.7743 164.822 16.9927C164.496 17.1382 164.242 17.0114 164.059 16.6121C163.914 16.3584 163.932 16.1047 164.113 15.849C164.475 15.3769 164.785 15.0151 165.038 14.7594C165.038 14.724 165.128 14.5244 165.311 14.1605C165.346 14.1251 165.384 14.0711 165.419 13.9962C165.454 13.9234 165.473 13.8694 165.473 13.8319C165.508 13.7966 165.546 13.7238 165.581 13.6136C165.617 13.5055 165.654 13.414 165.689 13.3412C165.87 12.9794 165.98 12.7797 166.016 12.7423C166.124 12.6695 166.288 12.4699 166.507 12.1434C166.687 11.8523 166.979 11.6173 167.378 11.4364C167.632 11.3283 167.985 11.1557 168.44 10.9186C168.894 10.6837 169.231 10.5111 169.447 10.4009C169.555 10.3655 169.628 10.3114 169.665 10.2366C169.738 10.1285 169.846 10.037 169.992 9.96418C170.1 9.92883 170.408 9.7999 170.917 9.58364C170.917 9.62107 170.909 9.65642 170.89 9.69177C170.871 9.7292 170.863 9.76455 170.863 9.7999C171.661 9.58156 172.079 9.47343 172.115 9.47343C173.749 9.0014 175.454 8.71028 177.234 8.60215C177.525 8.5668 177.852 8.52937 178.214 8.49402C178.287 8.49402 178.322 8.53145 178.322 8.60215H178.702C178.811 8.60215 178.856 8.65621 178.84 8.76642C178.821 8.87456 178.775 8.94941 178.702 8.98477H179.029C179.102 8.98477 179.137 9.0222 179.137 9.0929C179.536 9.0929 179.917 9.07418 180.281 9.03883C180.353 9.03883 180.408 9.0929 180.445 9.20311C180.48 9.31124 180.445 9.3861 180.337 9.42145C180.01 9.52958 179.665 9.6585 179.301 9.80198C179.555 9.76663 179.792 9.76663 180.008 9.80198C180.081 9.80198 180.116 9.83941 180.116 9.91011C180.805 9.91011 181.333 10.0016 181.695 10.1825L181.699 10.1888Z"/>
<path d="M196.947 27.1777H197.112V27.5042L197.004 27.5582C196.821 27.5957 196.694 27.6123 196.623 27.6123C196.188 27.6851 195.879 27.7392 195.698 27.7766C195.263 27.8494 194.754 27.9409 194.173 28.049C193.375 28.1571 192.811 28.232 192.485 28.2673C192.267 28.3401 192.104 28.4129 191.994 28.4857C191.957 28.5231 191.886 28.5397 191.776 28.5397C191.703 28.5397 191.668 28.5584 191.668 28.5938V28.7019H191.56C191.451 28.7019 191.377 28.6832 191.341 28.6479C191.268 28.5751 191.142 28.5584 190.961 28.5938C190.67 28.6666 190.198 28.7934 189.545 28.9743C188.274 29.3008 187.311 29.5545 186.658 29.7375C184.951 30.2095 183.408 30.7003 182.03 31.2076C181.485 31.3906 180.686 31.6984 179.634 32.133C179.162 32.3513 178.798 32.5135 178.544 32.6237H178.436L178.382 32.6778H178.218L178.272 32.5697C178.272 32.4969 178.235 32.4345 178.164 32.3784C178.091 32.3243 178.037 32.2786 178 32.2432L177.727 32.3513L177.673 32.2973H177.619C177.582 32.2619 177.546 32.2245 177.511 32.1891C177.511 32.1164 177.492 32.0727 177.457 32.054C177.419 32.0353 177.365 32.0269 177.293 32.0269C177.074 32.0997 176.912 32.0644 176.802 31.9188C176.729 31.846 176.621 31.7733 176.475 31.7005H176.311C176.203 31.6277 176.02 31.5196 175.766 31.374C175.658 31.3387 175.585 31.3012 175.548 31.2659C175.367 31.1577 175.276 30.9581 175.276 30.667V30.6129H175.33C175.367 30.5776 175.421 30.5401 175.494 30.5048C175.712 30.3592 175.874 30.2698 175.985 30.2324C176.168 30.197 176.311 30.0141 176.419 29.6876C176.419 29.6522 176.438 29.5878 176.473 29.4963C176.511 29.4069 176.527 29.3237 176.527 29.2509C176.781 28.417 176.999 27.7995 177.18 27.4002C177.58 26.4208 178.216 25.2584 179.087 23.9151C179.122 23.8797 179.177 23.8069 179.251 23.6967L178.979 23.7508L179.033 23.5865V23.5325C179.033 23.4597 179.052 23.4243 179.087 23.4243C179.122 23.3515 179.251 23.1706 179.468 22.8795C179.867 22.2619 180.193 21.7899 180.447 21.4634C181.135 20.5921 182.136 19.3216 183.441 17.6518C183.477 17.579 183.841 17.107 184.531 16.2357C184.604 16.1629 184.695 16.0548 184.803 15.9093L184.858 15.8552H184.749C183.552 16.1817 182.489 16.3002 181.564 16.2087C180.638 16.1193 179.938 15.9633 179.468 15.745C178.996 15.5994 178.65 15.3644 178.432 15.038C178.249 14.8196 178.249 14.5847 178.432 14.331V14.2769C178.54 14.1688 178.578 14.0773 178.54 14.0045L178.486 13.9504L178.54 13.8964C178.648 13.8236 178.704 13.678 178.704 13.4618C178.74 13.2081 178.813 13.0251 178.923 12.9169C178.996 12.8816 179.05 12.736 179.087 12.4803C179.122 12.3347 179.16 12.2266 179.195 12.1538C179.303 11.8273 179.503 11.6818 179.794 11.7171L179.848 11.7712C180.067 12.1351 180.536 12.4075 181.264 12.5884C181.518 12.6612 181.936 12.7152 182.516 12.7527C182.734 12.7901 182.897 12.8067 183.007 12.8067C183.514 12.8795 184.205 12.8255 185.076 12.6425C186.309 12.3888 187.49 12.0082 188.615 11.4988C188.977 11.3532 189.249 11.1536 189.432 10.8999C189.505 10.7918 189.651 10.6462 189.867 10.4632L190.085 10.2449C190.412 9.9184 190.703 9.75413 190.957 9.75413L191.065 9.70006L191.119 9.646H191.227C191.262 9.68343 191.335 9.73749 191.445 9.81027C191.626 9.95583 191.772 10.0099 191.882 9.97455L191.99 9.92048V10.0286C192.025 10.1014 192.117 10.1555 192.262 10.1929C192.371 10.1929 192.454 10.2012 192.508 10.2199C192.562 10.2386 192.662 10.247 192.807 10.247C192.953 10.2116 193.061 10.2116 193.134 10.247C193.315 10.3197 193.606 10.3925 194.005 10.4653H194.44C194.585 10.5027 194.747 10.6109 194.93 10.7918C195.038 10.8999 195.095 11.0018 195.095 11.0912C195.095 11.1806 195.041 11.2825 194.93 11.3906C194.822 11.4988 194.639 11.6443 194.386 11.8273C194.24 11.9355 194.148 12.0103 194.113 12.0457C192.77 13.1706 191.589 14.333 190.574 15.5308L190.466 15.6389C188.723 17.6352 187.434 19.1428 186.6 20.1596C185.729 21.1765 184.548 22.7381 183.061 24.8425C183.023 24.9506 182.953 25.0796 182.843 25.223C182.479 25.7325 182.225 26.113 182.079 26.3667C182.007 26.5123 181.896 26.6038 181.753 26.6391C181.716 26.6391 181.661 26.7119 181.589 26.8575L181.535 26.9115C181.607 26.9115 181.661 26.8928 181.699 26.8575C183.188 26.1692 184.785 25.8219 186.492 25.8219C186.891 25.8593 187.509 25.8032 188.343 25.6576C189.759 25.4393 191.175 25.458 192.591 25.7117C192.737 25.7117 192.936 25.7304 193.19 25.7658C193.589 25.8386 193.897 25.8926 194.115 25.93C194.733 26.113 195.259 26.348 195.693 26.6371C195.802 26.7098 195.947 26.7639 196.128 26.8013C196.419 26.8388 196.619 26.9469 196.727 27.1278C196.762 27.2006 196.835 27.2193 196.945 27.1819L196.947 27.1777Z"/>
</svg>
