<svg width="18" height="17" viewBox="0 0 18 17" xmlns="http://www.w3.org/2000/svg">
    <mask id="path-1-inside-1_2242_1145">
    <path fill-rule="evenodd" clip-rule="evenodd" d="M9 2.39722H10.3685C13.7549 2.39722 16.5 5.14236 16.5 8.52867C16.5 11.915 13.7549 14.6601 10.3685 14.6601H1.5V9.89721C1.5 5.75508 4.85786 2.39722 9 2.39722ZM0 9.89721C0 4.92665 4.02944 0.897217 9 0.897217H10.3685C14.5833 0.897217 18 4.31393 18 8.52867C18 12.7434 14.5833 16.1601 10.3685 16.1601H0.0759355C0.0339978 16.1601 0 16.1261 0 16.0842V9.89721ZM5.5346 9.8513C6.12844 9.8513 6.60985 9.3699 6.60985 8.77605C6.60985 8.18221 6.12844 7.70081 5.5346 7.70081C4.94076 7.70081 4.45935 8.18221 4.45935 8.77605C4.45935 9.3699 4.94076 9.8513 5.5346 9.8513ZM10.0752 8.77605C10.0752 9.3699 9.59377 9.8513 8.99993 9.8513C8.40609 9.8513 7.92468 9.3699 7.92468 8.77605C7.92468 8.18221 8.40609 7.70081 8.99993 7.70081C9.59377 7.70081 10.0752 8.18221 10.0752 8.77605ZM12.4654 9.8513C13.0592 9.8513 13.5406 9.3699 13.5406 8.77605C13.5406 8.18221 13.0592 7.70081 12.4654 7.70081C11.8715 7.70081 11.3901 8.18221 11.3901 8.77605C11.3901 9.3699 11.8715 9.8513 12.4654 9.8513Z"/>
    </mask>
    <path fill-rule="evenodd" clip-rule="evenodd" d="M9 2.39722H10.3685C13.7549 2.39722 16.5 5.14236 16.5 8.52867C16.5 11.915 13.7549 14.6601 10.3685 14.6601H1.5V9.89721C1.5 5.75508 4.85786 2.39722 9 2.39722ZM0 9.89721C0 4.92665 4.02944 0.897217 9 0.897217H10.3685C14.5833 0.897217 18 4.31393 18 8.52867C18 12.7434 14.5833 16.1601 10.3685 16.1601H0.0759355C0.0339978 16.1601 0 16.1261 0 16.0842V9.89721ZM5.5346 9.8513C6.12844 9.8513 6.60985 9.3699 6.60985 8.77605C6.60985 8.18221 6.12844 7.70081 5.5346 7.70081C4.94076 7.70081 4.45935 8.18221 4.45935 8.77605C4.45935 9.3699 4.94076 9.8513 5.5346 9.8513ZM10.0752 8.77605C10.0752 9.3699 9.59377 9.8513 8.99993 9.8513C8.40609 9.8513 7.92468 9.3699 7.92468 8.77605C7.92468 8.18221 8.40609 7.70081 8.99993 7.70081C9.59377 7.70081 10.0752 8.18221 10.0752 8.77605ZM12.4654 9.8513C13.0592 9.8513 13.5406 9.3699 13.5406 8.77605C13.5406 8.18221 13.0592 7.70081 12.4654 7.70081C11.8715 7.70081 11.3901 8.18221 11.3901 8.77605C11.3901 9.3699 11.8715 9.8513 12.4654 9.8513Z"/>
    <path d="M1.5 14.6601H0.5V15.6601H1.5V14.6601ZM10.3685 1.39722H9V3.39722H10.3685V1.39722ZM17.5 8.52867C17.5 4.59008 14.3071 1.39722 10.3685 1.39722V3.39722C13.2026 3.39722 15.5 5.69465 15.5 8.52867H17.5ZM10.3685 15.6601C14.3071 15.6601 17.5 12.4673 17.5 8.52867H15.5C15.5 11.3627 13.2026 13.6601 10.3685 13.6601V15.6601ZM1.5 15.6601H10.3685V13.6601H1.5V15.6601ZM0.5 9.89721V14.6601H2.5V9.89721H0.5ZM9 1.39722C4.30558 1.39722 0.5 5.20279 0.5 9.89721H2.5C2.5 6.30736 5.41015 3.39722 9 3.39722V1.39722ZM9 -0.102783C3.47715 -0.102783 -1 4.37436 -1 9.89721H1C1 5.47894 4.58172 1.89722 9 1.89722V-0.102783ZM10.3685 -0.102783H9V1.89722H10.3685V-0.102783ZM19 8.52867C19 3.76165 15.1356 -0.102783 10.3685 -0.102783V1.89722C14.031 1.89722 17 4.86622 17 8.52867H19ZM10.3685 17.1601C15.1356 17.1601 19 13.2957 19 8.52867H17C17 12.1911 14.031 15.1601 10.3685 15.1601V17.1601ZM0.0759355 17.1601H10.3685V15.1601H0.0759355V17.1601ZM-1 16.0842C-1 16.6784 -0.518275 17.1601 0.0759355 17.1601V15.1601C0.586271 15.1601 1 15.5738 1 16.0842H-1ZM-1 9.89721V16.0842H1V9.89721H-1ZM5.60985 8.77605C5.60985 8.81761 5.57616 8.8513 5.5346 8.8513V10.8513C6.68073 10.8513 7.60985 9.92218 7.60985 8.77605H5.60985ZM5.5346 8.70081C5.57616 8.70081 5.60985 8.7345 5.60985 8.77605H7.60985C7.60985 7.62993 6.68073 6.70081 5.5346 6.70081V8.70081ZM5.45935 8.77605C5.45935 8.7345 5.49304 8.70081 5.5346 8.70081V6.70081C4.38847 6.70081 3.45935 7.62993 3.45935 8.77605H5.45935ZM5.5346 8.8513C5.49304 8.8513 5.45935 8.81761 5.45935 8.77605H3.45935C3.45935 9.92218 4.38847 10.8513 5.5346 10.8513V8.8513ZM8.99993 10.8513C10.1461 10.8513 11.0752 9.92218 11.0752 8.77605H9.07518C9.07518 8.81761 9.04149 8.8513 8.99993 8.8513V10.8513ZM6.92468 8.77605C6.92468 9.92218 7.8538 10.8513 8.99993 10.8513V8.8513C8.95837 8.8513 8.92468 8.81761 8.92468 8.77605H6.92468ZM8.99993 6.70081C7.8538 6.70081 6.92468 7.62993 6.92468 8.77605H8.92468C8.92468 8.7345 8.95837 8.70081 8.99993 8.70081V6.70081ZM11.0752 8.77605C11.0752 7.62993 10.1461 6.70081 8.99993 6.70081V8.70081C9.04149 8.70081 9.07518 8.73449 9.07518 8.77605H11.0752ZM12.5406 8.77605C12.5406 8.81761 12.5069 8.8513 12.4654 8.8513V10.8513C13.6115 10.8513 14.5406 9.92218 14.5406 8.77605H12.5406ZM12.4654 8.70081C12.5069 8.70081 12.5406 8.73449 12.5406 8.77605H14.5406C14.5406 7.62993 13.6115 6.70081 12.4654 6.70081V8.70081ZM12.3901 8.77605C12.3901 8.7345 12.4238 8.70081 12.4654 8.70081V6.70081C11.3193 6.70081 10.3901 7.62993 10.3901 8.77605H12.3901ZM12.4654 8.8513C12.4238 8.8513 12.3901 8.81761 12.3901 8.77605H10.3901C10.3901 9.92218 11.3193 10.8513 12.4654 10.8513V8.8513Z" mask="url(#path-1-inside-1_2242_1145)"/>
</svg>